<?xml version="1.0" encoding="UTF-8"?>
<svg width="130px" height="102px" viewBox="0 0 130 102" version="1.1" xmlns="http://www.w3.org/2000/svg" xmlns:xlink="http://www.w3.org/1999/xlink">
    <title>ATV-CH2-New</title>
    <defs>
        <linearGradient x1="-1.04491579e-14%" y1="49.9641577%" x2="100%" y2="49.9641577%" id="linearGradient-1">
            <stop stop-color="#1D3F8A" offset="0%"></stop>
            <stop stop-color="#506EC7" offset="60%"></stop>
        </linearGradient>
        <linearGradient x1="-3.26388889%" y1="49.0817901%" x2="72.7083333%" y2="51.1005015%" id="linearGradient-2">
            <stop stop-color="#1D3F8A" offset="0%"></stop>
            <stop stop-color="#506EC7" offset="60%"></stop>
        </linearGradient>
        <linearGradient x1="72.6535008%" y1="60.4942966%" x2="23.7408377%" y2="34.0304183%" id="linearGradient-3">
            <stop stop-color="#C1834D" offset="5%"></stop>
            <stop stop-color="#D99D6F" offset="31%"></stop>
            <stop stop-color="#FFDE94" offset="89%"></stop>
        </linearGradient>
        <linearGradient x1="48.1344338%" y1="8.57142857%" x2="58.8925321%" y2="104.661654%" id="linearGradient-4">
            <stop stop-color="#1C6475" offset="0%"></stop>
            <stop stop-color="#2A7988" offset="33%"></stop>
            <stop stop-color="#6DC9BE" offset="100%"></stop>
        </linearGradient>
        <linearGradient x1="89.0217575%" y1="-56.7532468%" x2="30.7319953%" y2="72.987013%" id="linearGradient-5">
            <stop stop-color="#1C6475" offset="0%"></stop>
            <stop stop-color="#2A7988" offset="22%"></stop>
            <stop stop-color="#6DC9BE" offset="100%"></stop>
        </linearGradient>
        <linearGradient x1="36.6484999%" y1="55.8939096%" x2="64.2783145%" y2="36.8369352%" id="linearGradient-6">
            <stop stop-color="#840F59" offset="0%"></stop>
            <stop stop-color="#98226E" offset="36%"></stop>
            <stop stop-color="#C3388D" offset="88%"></stop>
        </linearGradient>
        <linearGradient x1="93.0473373%" y1="22.7681104%" x2="-12.2485207%" y2="71.6336963%" id="linearGradient-7">
            <stop stop-color="#193E86" offset="0%"></stop>
            <stop stop-color="#3954A2" offset="31%"></stop>
            <stop stop-color="#6684CE" offset="100%"></stop>
        </linearGradient>
        <linearGradient x1="82.0567376%" y1="5.12499371%" x2="43.5460993%" y2="102.947035%" id="linearGradient-8">
            <stop stop-color="#1C6475" offset="0%"></stop>
            <stop stop-color="#2A7988" offset="43%"></stop>
            <stop stop-color="#6DC9BE" offset="100%"></stop>
        </linearGradient>
        <linearGradient x1="70.4291845%" y1="35.7637827%" x2="-0.343347639%" y2="85.5738732%" id="linearGradient-9">
            <stop stop-color="#1C6475" offset="10%"></stop>
            <stop stop-color="#2A7988" offset="55%"></stop>
            <stop stop-color="#6DC9BE" offset="100%"></stop>
        </linearGradient>
        <linearGradient x1="78.6628571%" y1="3932.22857%" x2="39.8857143%" y2="4008.74286%" id="linearGradient-10">
            <stop stop-color="#1C6475" offset="0%"></stop>
            <stop stop-color="#2A7988" offset="22%"></stop>
            <stop stop-color="#6DC9BE" offset="100%"></stop>
        </linearGradient>
        <linearGradient x1="107.866109%" y1="17.4294918%" x2="-6.69456067%" y2="88.8876245%" id="linearGradient-11">
            <stop stop-color="#1C6475" offset="0%"></stop>
            <stop stop-color="#2A7988" offset="55%"></stop>
            <stop stop-color="#6DC9BE" offset="96%"></stop>
        </linearGradient>
        <linearGradient x1="87.2286521%" y1="20%" x2="-25.8134596%" y2="71.1981567%" id="linearGradient-12">
            <stop stop-color="#193E86" offset="0%"></stop>
            <stop stop-color="#3954A2" offset="41%"></stop>
            <stop stop-color="#6684CE" offset="100%"></stop>
        </linearGradient>
        <linearGradient x1="96.5185185%" y1="53.230727%" x2="-61.8518519%" y2="41.5720165%" id="linearGradient-13">
            <stop stop-color="#D99D6F" offset="0%"></stop>
            <stop stop-color="#FFDE94" offset="100%"></stop>
        </linearGradient>
        <linearGradient x1="143.577982%" y1="77.2569649%" x2="37.4311927%" y2="50.3097382%" id="linearGradient-14">
            <stop stop-color="#C1834D" offset="11%"></stop>
            <stop stop-color="#D99D6F" offset="44%"></stop>
            <stop stop-color="#FFDE94" offset="100%"></stop>
        </linearGradient>
        <linearGradient x1="25.3619303%" y1="56.6423247%" x2="77.5335121%" y2="35.3498552%" id="linearGradient-15">
            <stop stop-color="#840F59" offset="0%"></stop>
            <stop stop-color="#98226E" offset="35%"></stop>
            <stop stop-color="#C3388D" offset="93%"></stop>
        </linearGradient>
        <linearGradient x1="49.9711836%" y1="8868.35084%" x2="49.9711836%" y2="9334.91136%" id="linearGradient-16">
            <stop stop-color="#FFFFFF" offset="0%"></stop>
            <stop stop-color="#E3E3E3" offset="100%"></stop>
        </linearGradient>
        <linearGradient x1="50%" y1="7721.09469%" x2="50%" y2="8152.30503%" id="linearGradient-17">
            <stop stop-color="#FFFFFF" offset="0%"></stop>
            <stop stop-color="#E3E3E3" offset="100%"></stop>
        </linearGradient>
        <linearGradient x1="50.1281872%" y1="6334.32463%" x2="50.1281872%" y2="6684.30864%" id="linearGradient-18">
            <stop stop-color="#FFFFFF" offset="0%"></stop>
            <stop stop-color="#E3E3E3" offset="100%"></stop>
        </linearGradient>
        <linearGradient x1="59.7904682%" y1="2430.52817%" x2="47.187562%" y2="2526.69014%" id="linearGradient-19">
            <stop stop-color="#FFFFFF" offset="0%"></stop>
            <stop stop-color="#E3E3E3" offset="100%"></stop>
        </linearGradient>
        <linearGradient x1="50.0167762%" y1="944.189455%" x2="50.0167762%" y2="991.441698%" id="linearGradient-20">
            <stop stop-color="#FFFFFF" offset="0%"></stop>
            <stop stop-color="#E3E3E3" offset="100%"></stop>
        </linearGradient>
        <linearGradient x1="50.001673%" y1="46.5697933%" x2="50.001673%" y2="87.864764%" id="linearGradient-21">
            <stop stop-color="#FFFFFF" offset="0%"></stop>
            <stop stop-color="#E3E3E3" offset="100%"></stop>
        </linearGradient>
    </defs>
    <g id="recommendations" stroke="none" stroke-width="1" fill="none" fill-rule="evenodd">
        <g id="01-01-1-option-2-4" transform="translate(-51.000000, -317.000000)" fill-rule="nonzero" stroke="#1D1D1B" stroke-width="0.05">
            <g id="ATV-CH2-New" transform="translate(52.000000, 318.000000)">
                <path d="M17.5074411,25.9787836 L17.0556362,28.0119057 C17.7333436,24.5480679 14.2318553,24.5480679 6.55117151,28.0119057 L7.2288789,36.5961994 L18.411051,37.1609556 L8.24544,52.2964208 L16.2649775,56.3626652 L24.0586126,56.9274214 L43.147371,52.9741282 L44.9545907,37.838663 L17.5074411,25.9787836 Z" id="SVGID" fill="url(#linearGradient-1)"></path>
                <polygon id="_3D_Alt" fill="url(#linearGradient-2)" points="56.5885677 55.797909 24.0586126 56.9274214 24.1715638 50.6021523 56.5885677 52.2964208"></polygon>
                <polygon id="Path" fill="url(#linearGradient-3)" points="68.6743496 36.5961994 45.1804931 35.0148822 45.0675419 35.0148822 45.0675419 35.0148822 44.9545907 34.901931 45.1804931 35.0148822 65.7376175 60.3159583 74.3219112 57.6051288 83.8098148 47.4395178 76.1291309 11.9728307 68.900252 0.903609863"></polygon>
                <polygon id="Path" fill="url(#linearGradient-4)" points="79.8565216 74.6607649 92.2811572 99.1711824 91.0386937 74.20896 85.1652296 69.1261545"></polygon>
                <polygon id="Path" fill="url(#linearGradient-5)" points="54.4424942 95.8955967 59.8641534 87.9890104 57.6051288 87.1983518 55.9108603 89.231474"></polygon>
                <polygon id="Path" fill="url(#linearGradient-6)" points="81.7766926 47.7783715 94.7660844 45.6322981 98.2675726 55.4590553 98.2675726 55.4590553 91.1516449 62.0102268 106.174159 72.6276427 114.193696 57.9439825 74.8866674 15.1354652"></polygon>
                <polygon id="Path" fill="url(#linearGradient-7)" points="65.3987638 59.9771046 43.5991759 87.9890104 81.7766926 61.2195682 74.4348625 59.7512022 73.8701063 57.3792263"></polygon>
                <polygon id="Path" fill="url(#linearGradient-8)" points="59.6382509 92.3941085 75.5643748 89.1185227 70.7074718 77.0327408"></polygon>
                <polygon id="Path" fill="url(#linearGradient-9)" points="48.9078838 86.4076931 55.9108603 89.231474 75.2255211 68.7873008"></polygon>
                <polygon id="Path" fill="url(#linearGradient-10)" points="62.3490805 82.2284975 61.6713731 90.1350838 73.5312526 74.3219112 73.4183014 70.3686181"></polygon>
                <polygon id="Path" fill="url(#linearGradient-11)" points="55.797909 78.3881556 62.3490805 82.2284975 82.7932537 60.3159583"></polygon>
                <polygon id="Path" fill="url(#linearGradient-12)" points="38.8552241 49.8114937 38.8552241 49.8114937 36.2573457 63.0267879 36.2573457 63.0267879 42.9214685 70.3686181 57.8310312 59.0734948 49.47264 46.5359079 34.5630773 45.8582005"></polygon>
                <polygon id="Path" fill="url(#linearGradient-13)" points="73.9830575 52.1834696 75.2255211 51.9575671 65.8505688 49.6985425 59.9771046 48.5690301"></polygon>
                <polygon id="Path" fill="url(#linearGradient-14)" points="65.7376175 49.6985425 75.5643748 52.1834696 78.0493019 50.3762499 66.3023737 41.7919562"></polygon>
                <polygon id="_1" fill="url(#linearGradient-15)" points="85.5040833 17.0556362 119.050599 48.3431277 127.634893 42.695566 87.0854005 11.9728307"></polygon>
                <path d="M59.8641534,40.8883463 C59.692185,41.1141543 59.6115348,41.3964299 59.6382509,41.6790049 L59.0734948,47.4395178 C59.0734948,47.6654203 58.9605436,48.004274 59.0734948,48.2301764 C59.186446,48.4560789 59.4123485,48.4560789 59.8641534,48.6819814 L65.1728614,49.6985425 C65.7376175,49.8114937 65.7376175,49.6985425 65.8505688,49.2467375 C65.96352,48.7949326 66.3023737,42.695566 66.3023737,42.3567123 C66.3023737,42.0178586 66.4153249,41.6790049 65.8505688,41.5660537 L60.9936657,40.8883463 L59.8641534,40.8883463" id="Path" fill="url(#linearGradient-16)"></path>
                <path d="M48.7949326,86.4076931 C48.6819814,86.5206444 48.5690301,86.6335956 48.5690301,87.0854005 C48.5690301,87.5372055 48.004274,91.6034498 48.004274,91.9423035 C48.004274,92.2811572 48.004274,92.3941085 48.3431277,92.5070597 L53.8777381,95.8955967 C54.4424942,96.1214992 54.5554455,95.8955967 54.6683967,95.4437918 C54.7813479,94.9919868 55.9108603,89.9091814 55.9108603,89.6832789 L55.9108603,89.3444252 C55.9108603,89.231474 55.797909,89.231474 55.6849578,89.1185227 L49.1337863,86.4076931 L48.7949326,86.4076931" id="Path" fill="url(#linearGradient-17)"></path>
                <path d="M55.6849578,78.6140581 C55.6849578,78.6140581 55.0072504,85.842937 55.0072504,86.0688394 C54.9364352,86.4101901 55.0683005,86.7618307 55.3461041,86.9724493 L61.106617,90.1350838 C61.6713731,90.3609863 61.6713731,90.1350838 61.7843244,89.7962301 C61.8972756,89.4573764 62.3490805,83.2450586 62.3490805,83.0191561 L62.3490805,82.3414488 C62.2585271,82.1408502 62.0978742,81.9801973 61.8972756,81.8896438 L56.1367627,78.5011068 L56.0238115,78.5011068 C55.9108603,78.3881556 55.6849578,78.3881556 55.6849578,78.6140581" id="Path" fill="url(#linearGradient-18)"></path>
                <path d="M24.1715638,50.6021523 L24.1715638,56.9274214 L0,56.9274214 L0,55.797909 C11.8598794,45.2934444 17.1685874,39.6458827 17.1685874,36.2573457 C17.238941,33.6366054 15.2614527,31.4119311 12.6505381,31.1745403 C9.61907754,31.2345867 7.17597414,33.6776901 7.11592767,36.7091507 L1.24246356,35.2407847 C1.24246356,29.4802718 6.32526904,24.8492712 12.3116844,24.8492712 C18.4369745,24.9694094 23.3737183,29.9061531 23.4938564,36.0314433 C23.4938564,41.2272 18.1851485,47.4395178 13.5541479,50.7151036 L24.1715638,50.6021523 Z" id="_Path_" fill="url(#linearGradient-19)"></path>
                <path d="M68.2225446,0.79065863 L62.0102268,2.71082959 C61.2195682,3.04968329 61.2195682,3.27558575 61.2195682,4.17919562 C61.2195682,5.08280548 61.7843244,23.9456614 61.6713731,24.6233688 C61.5584219,25.3010762 61.4454707,25.4140274 60.654812,25.3010762 L36.2573457,22.5902466 C35.6925896,22.4772953 35.5796383,22.5902466 35.1278334,23.1550027 C34.6760285,23.7197589 32.0781501,28.3507594 31.9651989,28.6896131 C31.8522477,29.0284668 31.7392964,29.3673205 32.0781501,30.0450279 L52.7482257,59.8641534 C53.0870794,60.4289096 53.3129819,60.654812 52.5223233,61.3325194 C51.7316646,62.0102268 45.5193468,66.9800811 43.3732734,69.2391057 C43.2296939,69.4174618 43.0057635,69.5112598 42.7779326,69.4884767 C42.5501017,69.4656936 42.3491794,69.3294104 42.2437611,69.1261545 L36.7091507,62.8008855 C36.6018365,62.633529 36.5615081,62.4318869 36.5961994,62.2361293 C36.9350531,60.4289096 38.8552241,50.7151036 38.8552241,50.2632986 C38.9529184,49.9434987 38.8660166,49.5958914 38.6293216,49.3596888 L34.6760285,45.9711518 C34.3748252,45.7452493 34.1489227,45.8582005 33.9983211,46.3100055 C33.9983211,46.5359079 28.8025644,64.6081052 28.8025644,64.8340077 C28.6882469,65.2247831 28.7726448,65.6467725 29.0284668,65.96352 C29.4802718,66.4153249 42.3567123,87.4242542 42.5826148,87.7631079 C42.8085173,88.1019616 43.2603222,88.2149129 43.5991759,87.7631079 C43.9380296,87.311303 65.3987638,61.2195682 65.5117151,60.8807145 C65.6246663,60.5418608 66.1894225,59.8641534 65.5117151,59.0734948 L46.3100055,36.0314433 C45.8582005,35.4666871 46.1970542,35.2407847 46.7618104,35.2407847 L67.3189348,38.6293216 C69.0132033,38.8552241 69.1261545,38.1775167 69.4650082,37.2739068 C69.8038619,36.370297 72.6276427,29.593223 72.9664964,28.8025644 C73.3028666,28.3043094 73.386471,27.6772765 73.1923989,27.1082959 C73.0794477,26.0917348 68.900252,1.69426849 68.7873008,1.12951233 C68.6743496,0.564756164 68.5613983,0.677707397 68.4484471,0.677707397 C68.3354959,0.677707397 68.3354959,0.79065863 68.2225446,0.79065863" id="Path" fill="url(#linearGradient-20)"></path>
                <path d="M81.3248877,0.451804931 C81.0989852,0.79065863 75.3384723,14.0059529 75.1125698,14.3448066 C74.8727851,14.7957259 74.9654047,15.3514441 75.3384723,15.7002214 L113.403038,57.71808 C113.515989,57.9439825 113.62894,58.0569337 113.403038,58.3957874 L105.044647,70.2556668 C104.818744,70.4815693 104.705793,70.4815693 104.366939,70.2556668 L92.6200109,62.574983 C92.2811572,62.3490805 92.168206,62.1231781 92.5070597,61.7843244 C92.8459134,61.4454707 98.3805238,56.3626652 98.4934751,56.1367627 C98.6064263,55.9108603 98.7193775,55.6849578 98.6064263,55.2331529 L95.6696942,45.2934444 C95.4437918,44.615737 95.2178893,44.615737 94.7660844,44.615737 L74.3219112,48.7949326 C73.4183014,49.0208351 73.4183014,49.2467375 73.5312526,50.1503474 C73.6442038,51.0539573 74.20896,59.7512022 74.20896,59.9771046 C74.1758077,60.1271884 74.2052587,60.2843011 74.290517,60.4121886 C74.3757753,60.5400761 74.5094752,60.6276896 74.6607649,60.654812 L80.6471803,61.7843244 C80.8730827,61.7843244 80.8730827,61.8972756 80.7601315,62.1231781 L68.6743496,71.6110816 C68.4107993,71.8312611 68.3195166,72.1963918 68.4484471,72.5146915 L74.5478137,88.1019616 C74.8866674,89.0055715 74.9996186,89.231474 74.20896,89.3444252 L59.9771046,92.2811572 C59.5252997,92.3941085 59.5252997,92.7329622 59.7512022,93.1847671 L63.7044953,99.2841337 C64.2692515,99.9618411 64.3822027,100.074792 65.1728614,99.9618411 L91.8293523,99.7359386 C92.7329622,99.6229874 92.3941085,99.0582312 92.0552548,98.4934751 C91.7164011,97.9287189 80.7601315,75.9032285 80.6471803,75.4514235 C80.534229,74.9996186 80.6471803,74.7737162 80.7601315,74.6607649 C80.8730827,74.5478137 84.7134246,70.5945205 85.0522783,70.3686181 C85.391132,70.1427156 85.7299857,69.8038619 86.5206444,70.3686181 L109.562696,89.231474 C110.240403,89.6832789 110.466306,89.6832789 111.031062,89.1185227 C111.595818,88.5537666 127.747844,57.9439825 127.973747,57.6051288 C128.199649,57.2662751 128.312601,57.0403726 127.973747,56.7015189 L86.0688394,17.1685874 C85.842937,16.9426849 85.7299857,16.8297337 85.7299857,16.6038312 C85.7299857,16.3779288 86.4076931,14.6836603 86.9724493,13.102343 C87.5372055,11.5210258 87.4242542,12.6505381 87.8760592,12.9893918 L126.844234,42.4696636 C127.747844,43.147371 127.747844,42.4696636 127.634893,42.1308099 L118.598794,21.7995879 C118.497755,21.3923342 118.258152,21.0329304 117.921087,20.7830268 L82.2284975,0.225902466 L81.7766926,7.99360578e-15 C81.5507901,7.99360578e-15 81.4378389,0.225902466 81.3248877,0.451804931" id="Path" fill="url(#linearGradient-21)"></path>
            </g>
        </g>
    </g>
</svg>